<?xml version="1.0" encoding="UTF-8"?>
<svg id="Layer_1" data-name="Layer 1" xmlns="http://www.w3.org/2000/svg" version="1.1" viewBox="0 0 1080 1920">
  <defs>
    <style>
      .cls-1 {
        fill: #17a78a;
      }

      .cls-1, .cls-2, .cls-3, .cls-4 {
        stroke-width: 0px;
      }

      .cls-2 {
        fill: #d33666;
      }

      .cls-3 {
        fill: #3c4297;
      }

      .cls-4 {
        fill: #f2c762;
      }
    </style>
  </defs>
  <path class="cls-3" d="M933,1758c55-131.6,8.2-201,69-301,21.9-35.9,52.1-66.7,88-92.2V465.1c-29.3-21.2-52.7-49.5-63-82.1-21.6-68.4,29.4-109.3,0-162-31.7-56.9-104.3-32.8-141-91-22.6-35.8-21.9-87.2-4.3-130h-331c-31,48.8-93,88.3-149.2,91.4-54.7,3-71.8-30.3-152.4-29.8-63.8.4-113,21.7-124.1,26.7-.3.1-.6.3-1,.4,4.3,11.7,7,22.9,8.5,33.3,12.8,88.4-56.4,119.9-69.7,250.9-15.3,150.9,66.8,205.7,27.3,275.4-19.5,34.4-60.2,57.8-110.1,69.5v817.1c38.3,10.4,73.5,31.1,95.3,61.6,41.7,58.4,5.8,113,50,154.1,47.8,44.3,109.3-1,162.2,43,33.5,27.8,48.6,79,43.9,126.3h487.3c46-43.4,86.9-96.7,114.2-162Z"/>
  <path class="cls-2" d="M90.1,648.4c39.5-69.7-42.6-124.4-27.3-275.4,13.3-131,82.5-162.5,69.7-250.9-1.5-10.4-4.2-21.6-8.5-33.3C46.9,123.9,32.2,171.9,3.1,168.2c-7.6-.9-15.3-5.3-23.1-14.7v564.4c49.9-11.8,90.7-35.2,110.1-69.5Z"/>
  <path class="cls-4" d="M61.6,0H-20v153.5c7.7,9.4,15.5,13.8,23.1,14.7,29.1,3.7,43.8-44.3,120.9-79.4.3-.1.6-.3,1-.4,11.1-5,60.2-26.3,124.1-26.7,80.7-.6,97.8,32.8,152.4,29.8,56.2-3.1,118.2-42.7,149.2-91.4H61.6Z"/>
  <path class="cls-1" d="M886,130c36.7,58.2,109.3,34.1,141,91,29.4,52.7-21.6,93.6,0,162,10.3,32.6,33.7,60.9,63,82.1V0h-208.3c-17.6,42.8-18.3,94.2,4.3,130Z"/>
  <path class="cls-1" d="M287.6,1793.7c-52.9-44-114.5,1.3-162.2-43-44.2-41.1-8.3-95.7-50-154.1-21.8-30.5-57-51.2-95.3-61.6v385h351.5c4.7-47.3-10.4-98.5-43.9-126.3Z"/>
  <path class="cls-4" d="M1090,1364.8c-35.9,25.5-66.1,56.2-88,92.2-60.8,100-14,169.4-69,301-27.3,65.3-68.2,118.6-114.2,162h271.2v-555.2Z"/>
</svg>